Coordinates
version=1
nRows=17
nColumns=36
inDegrees=yes

Units are S.I. units (second, meters, Newtons, ...)
If the header above contains a line with 'inDegrees', this indicates whether rotational values are in degrees (yes) or radians (no).

endheader
time	pelvis_tilt	pelvis_list	pelvis_rotation	pelvis_tx	pelvis_ty	pelvis_tz	hip_flexion_r	hip_adduction_r	hip_rotation_r	knee_angle_r	knee_angle_r_beta	ankle_angle_r	subtalar_angle_r	mtp_angle_r	hip_flexion_l	hip_adduction_l	hip_rotation_l	knee_angle_l	knee_angle_l_beta	ankle_angle_l	subtalar_angle_l	mtp_angle_l	lumbar_extension	lumbar_bending	lumbar_rotation	arm_flex_r	arm_add_r	arm_rot_r	elbow_flex_r	pro_sup_r	arm_flex_l	arm_add_l	arm_rot_l	elbow_flex_l	pro_sup_l
      4.35000000	     -4.89897723	     -2.72555887	     -0.27993608	      0.62362847	      0.95952195	     -0.22559379	      0.98188927	     -1.84280505	    -11.18137502	      0.44795522	      0.00781829	     -2.19057608	    -22.98607458	     -7.49999987	     -0.82431349	     -7.49159533	    -13.06985498	      0.22225519	      0.00387908	      1.52252173	    -18.03919514	     -7.49999987	      3.06459450	      4.54372233	      2.91116727	     64.48540370	     13.79812378	     72.61549344	    114.17556730	     94.01169054	     43.81596709	      9.19165879	     48.14288370	    107.07986881	     71.04498456
      4.36666670	     -4.82669169	     -2.74300511	     -0.35080124	      0.62294526	      0.96129218	     -0.22537892	      0.93588550	     -1.82168229	    -11.27417644	      0.47537535	      0.00829687	     -2.36813352	    -23.13495541	     -7.49999987	     -0.93089402	     -7.49952592	    -13.09236413	      0.22255280	      0.00388428	      1.52132653	    -18.02380516	     -7.49999987	      2.97845924	      4.56438326	      2.81435952	     64.49733763	     13.85992106	     72.50022044	    114.08367699	     93.90431583	     43.88867038	      8.97985232	     47.89170442	    106.87247729	     70.99513353
      4.38333330	     -4.74062750	     -2.77468808	     -0.42101812	      0.62356944	      0.96206534	     -0.22536244	      0.88512613	     -1.76286691	    -11.22598362	      0.48343324	      0.00843750	     -2.51068009	    -23.44734219	     -7.49999987	     -1.03199270	     -7.54224319	    -13.08885193	      0.22262196	      0.00388549	      1.45594151	    -18.04242447	     -7.49999987	      2.87226205	      4.57338719	      2.78102388	     64.42731330	     13.91264120	     72.60532371	    114.06628020	     93.22843172	     43.84930753	      8.75273312	     47.45975771	    106.59156548	     70.74255689
      4.40000000	     -4.64765343	     -2.78819657	     -0.45939232	      0.62628352	      0.96261921	     -0.22254624	      0.73690336	     -1.68582883	    -11.40872558	      0.48192033	      0.00841110	     -2.56767079	    -23.45796670	     -7.49999987	     -1.19218737	     -7.60881000	    -13.17720417	      0.22038476	      0.00384644	      1.33912922	    -18.03070525	     -7.49999987	      2.84948910	      4.46043509	      2.91522995	     64.17561968	     13.96063917	     72.68883229	    114.08659107	     93.25444039	     43.69942397	      8.43048086	     47.18654262	    106.49790914	     70.73695338
      4.41666670	     -4.56542296	     -2.81979740	     -0.49263834	      0.62346970	      0.96202013	     -0.22544340	      0.66090737	     -1.65985501	    -11.68338462	      0.49055631	      0.00856182	     -2.51249538	    -23.25633385	     -7.49999987	     -1.30544075	     -7.63660677	    -13.17986536	      0.21864196	      0.00381602	      1.40875370	    -17.98980901	     -7.49999987	      2.73683510	      4.50947209	      2.96109848	     64.26671910	     13.97492912	     72.83418799	    114.01508646	     91.94351731	     43.62368077	      8.49191695	     46.11308911	    106.18539986	     70.31201060
      4.43333330	     -4.44956749	     -2.81749377	     -0.50280336	      0.62261324	      0.96195781	     -0.22540658	      0.56203345	     -1.66928881	    -11.87350857	      0.47222508	      0.00824188	     -2.43047567	    -23.00556389	     -7.49999987	     -1.42272096	     -7.63159299	    -13.26779500	      0.21883501	      0.00381939	      1.45277337	    -17.89291501	     -7.49999987	      2.52110133	      4.46837178	      3.05879072	     64.49420934	     13.89611647	     72.87069136	    114.01247615	     90.51982332	     43.96836421	      8.55677272	     45.24488306	    105.91771842	     69.87160699
      4.45000000	     -4.48723480	     -2.79414506	     -0.45364719	      0.62332596	      0.96156040	     -0.22547631	      0.58949494	     -1.71247205	    -11.72181456	      0.47404463	      0.00827364	     -2.83307717	    -23.56388521	     -7.49999987	     -1.36720378	     -7.59807366	    -13.10785895	      0.22193556	      0.00387351	      1.37032122	    -18.08934123	     -7.49999987	      2.62790356	      4.48108693	      3.05244120	     64.37636513	     13.73041730	     72.71492544	    113.84431890	     93.39029482	     43.93803316	      8.62987109	     44.33460907	    105.73733320	     70.47372002
      4.46666670	     -4.30481248	     -2.77376312	     -0.41038957	      0.62246976	      0.96162052	     -0.22542662	      0.39556958	     -1.76124872	    -12.04481341	      0.46365478	      0.00809230	     -2.54985993	    -22.89104149	     -7.49999987	     -1.54097683	     -7.56337616	    -13.15206083	      0.22215853	      0.00387740	      1.49698510	    -17.94043390	     -7.49999987	      2.41709388	      4.46341581	      3.09226509	     64.45951829	     13.58538324	     72.88327459	    113.84221130	     91.37899539	     44.06257762	      8.85852247	     43.39012850	    105.71963058	     69.89446285
      4.48333330	     -4.34190242	     -2.75081824	     -0.34260448	      0.61982431	      0.95848515	     -0.22336816	      0.47877869	     -1.77556121	    -11.89113214	      0.46913191	      0.00818790	     -2.78901214	    -23.32219726	     -7.49999987	     -1.42654706	     -7.55996611	    -12.94936731	      0.22763273	      0.00397294	      1.37092367	    -18.24227338	     -7.49999987	      2.47162928	      4.44024022	      3.21824050	     64.70422868	     13.62079321	     72.55583174	    113.46489884	     95.22494687	     44.38227505	      8.97979213	     42.70598290	    105.60219668	     70.35152993
      4.50000000	     -4.31586701	     -2.70791812	     -0.30617649	      0.62256699	      0.95893664	     -0.22574062	      0.44152187	     -1.84963003	    -11.90002244	      0.47113331	      0.00822283	     -2.79383634	    -23.30862763	     -7.49999987	     -1.42758720	     -7.50993393	    -12.94917359	      0.22990606	      0.00401262	      1.37790832	    -18.24828033	     -7.49999987	      2.57336244	      4.44480968	      3.18485612	     64.70603511	     13.65187161	     72.54997470	    113.44828595	     95.22721145	     44.49995822	      9.14903447	     42.64510604	    105.66134700	     70.34728968
      4.51666670	     -4.26582245	     -2.64707577	     -0.29595559	      0.61978787	      0.95898800	     -0.22338115	      0.43145798	     -1.91594300	    -11.96975843	      0.47944649	      0.00836792	     -2.71667780	    -23.13282090	     -7.49999987	     -1.42855046	     -7.46994862	    -12.85977681	      0.23542453	      0.00410893	      1.41942072	    -18.31241366	     -7.49999987	      2.43383978	      4.38237941	      3.27969365	     64.84551337	     13.68924600	     72.37939832	    113.19577765	     93.94289487	     44.69247306	      9.39449475	     42.33817212	    105.66902135	     69.92366483
      4.53333330	     -4.27566078	     -2.60611498	     -0.29618884	      0.61920539	      0.95943412	     -0.22325668	      0.48707620	     -1.93878117	    -11.85615311	      0.47654258	      0.00831724	     -2.61929756	    -23.22211045	     -7.49999987	     -1.36453457	     -7.44474695	    -12.88314973	      0.24123168	      0.00421029	      1.50340784	    -18.28097700	     -7.49999987	      2.33077952	      4.35107808	      3.46499533	     64.97061860	     13.50273359	     72.35195400	    113.17797007	     92.64759111	     44.76848369	      9.52191012	     42.47660665	    106.20717777	     69.47440542
      4.55000000	     -4.17659715	     -2.54522266	     -0.21399692	      0.61994127	      0.96092137	     -0.22327252	      0.36358522	     -2.00688652	    -11.83309724	      0.48427141	      0.00845213	     -2.48126084	    -23.04393752	     -7.49999987	     -1.42957708	     -7.40843729	    -12.71186538	      0.24244689	      0.00423150	      1.39346137	    -18.42618641	     -7.49999987	      2.13300379	      4.33275656	      3.46807197	     65.10544540	     13.48639557	     72.51321582	    113.12057242	     91.77010145	     44.72204013	      9.49514646	     43.25570187	    106.43455997	     69.25913228
      4.56666670	     -4.16954972	     -2.55131202	     -0.07752369	      0.62312918	      0.95918545	     -0.22571669	      0.30658145	     -2.00647190	    -11.85335790	      0.48565802	      0.00847633	     -2.28736241	    -22.88398297	     -7.49999987	     -1.39728436	     -7.41742599	    -12.61992314	      0.24449621	      0.00426726	      1.51765238	    -18.41086998	     -7.49999987	      2.26557465	      4.45461094	      3.44590141	     64.98496386	     13.33043453	     72.64692094	    113.38096670	     90.19866065	     44.47324687	      9.57048336	     44.05500086	    106.69263832	     68.90550784
      4.58333330	     -4.09180285	     -2.49995047	     -0.02229899	      0.62317108	      0.96258552	     -0.22077667	      0.17370846	     -1.97393666	    -11.52334166	      0.47870073	      0.00835490	     -1.97400459	    -22.92944325	     -7.49999987	     -1.50669806	     -7.44816178	    -12.57267453	      0.24998680	      0.00436309	      1.38344647	    -18.40706886	     -7.49999987	      2.22619700	      4.30450905	      3.59025718	     64.76224580	     13.33470841	     72.89331425	    113.29880722	     89.38705327	     44.25992685	      9.36672306	     45.23440920	    106.98932330	     68.86059619
      4.60000000	     -4.18514661	     -2.48526335	      0.04146407	      0.61953609	      0.95966227	     -0.22355297	      0.29572973	     -1.97647823	    -11.22677846	      0.50613366	      0.00883370	     -1.87267904	    -23.21620721	     -7.49999987	     -1.41222104	     -7.43634430	    -12.52612557	      0.26601281	      0.00464280	      1.46855095	    -18.31839176	     -7.49999987	      2.29456997	      4.28051197	      3.51743265	     64.77256893	     13.26563509	     72.40923647	    113.33318161	     95.02260539	     44.36383417	      9.45640425	     45.90971615	    107.15809600	     70.64196926
      4.61666670	     -4.11841342	     -2.49359674	      0.07293746	      0.61646325	      0.96012364	     -0.22164418	      0.32505699	     -1.92211592	    -11.08882256	      0.53550400	      0.00934631	     -1.42772486	    -23.12669212	     -7.49999987	     -1.45820482	     -7.47908749	    -12.46597941	      0.28688747	      0.00500713	      1.51358564	    -18.29220922	     -7.49999987	      2.01074781	      4.24260179	      3.44949780	     65.12735298	     13.30615110	     72.31990840	    113.28731999	     93.10100890	     44.74583558	      9.44046073	     46.50739129	    107.44895384	     70.21364554
